<?xml version="1.0" standalone="no"?>
<!DOCTYPE svg PUBLIC "-//W3C//DTD SVG 20010904//EN"
 "http://www.w3.org/TR/2001/REC-SVG-20010904/DTD/svg10.dtd">
<svg version="1.0" xmlns="http://www.w3.org/2000/svg"
 width="612.000000pt" height="612.000000pt" viewBox="0 0 612.000000 612.000000"
 preserveAspectRatio="xMidYMid meet">
<metadata>
Created by potrace 1.14, written by Peter Selinger 2001-2017
</metadata>
<g transform="translate(0.000000,612.000000) scale(0.100000,-0.100000)"
fill="#000000" stroke="none">
<path d="M2840 3990 c-162 -8 -453 -36 -505 -49 l-30 -7 -5 -282 c-3 -155 -5
-282 -5 -282 0 0 45 -9 100 -19 178 -35 357 -44 751 -38 359 5 415 9 594 43
l85 15 -3 280 c-3 279 -3 280 -25 288 -34 12 -331 41 -537 51 -201 10 -194 10
-420 0z"/>
<path d="M2105 3485 c-166 -32 -285 -68 -382 -115 -93 -46 -133 -86 -133 -134
0 -42 22 -71 84 -110 186 -118 603 -195 1163 -216 778 -28 1535 92 1672 266
29 37 27 85 -5 123 -66 78 -360 177 -618 207 l-59 7 5 -76 c3 -43 2 -77 -1
-77 -3 0 -49 -9 -101 -19 -228 -46 -342 -55 -670 -55 -330 0 -433 8 -671 55
l-106 21 5 74 5 74 -34 -1 c-19 0 -88 -11 -154 -24z"/>
<path d="M2050 2689 c-33 -13 -68 -47 -87 -83 -21 -40 -19 -275 2 -316 18 -35
56 -66 98 -79 18 -6 177 -28 354 -50 342 -42 363 -42 417 0 14 11 40 40 57 65
40 59 91 84 169 84 76 0 131 -26 164 -79 13 -21 38 -49 55 -63 60 -51 66 -51
443 -4 329 41 349 45 383 70 61 47 70 75 70 216 0 98 -4 132 -17 155 -21 39
-56 71 -91 84 -38 15 -1981 14 -2017 0z m517 -191 c29 -10 74 -39 100 -64 l48
-44 -28 -25 c-43 -39 -156 -69 -234 -62 -75 6 -199 61 -233 104 -19 25 -20 27
-3 46 10 11 38 29 62 39 90 41 189 43 288 6z m1251 0 c29 -11 64 -30 78 -42
l26 -21 -22 -27 c-34 -44 -157 -99 -233 -105 -98 -8 -257 47 -257 89 0 18 64
71 117 95 100 46 187 50 291 11z"/>
</g>
</svg>
